HIERARCHY
ROOT Hips
{
	OFFSET -0.001795 -0.223333 0.028219
	CHANNELS 6 Xposition Yposition Zposition Zrotation Yrotation Xrotation 
	JOINT LeftUpLeg
	{
		OFFSET 0.069520 -0.091406 -0.006815
		CHANNELS 3 Zrotation Yrotation Xrotation
		JOINT LeftLeg
		{
			OFFSET 0.034277 -0.375199 -0.004496
			CHANNELS 3 Zrotation Yrotation Xrotation
			JOINT LeftFoot
			{
				OFFSET -0.013596 -0.397961 -0.043693
				CHANNELS 3 Zrotation Yrotation Xrotation
				JOINT LeftToe
				{
					OFFSET 0.026358 -0.055791 0.119288
					CHANNELS 3 Zrotation Yrotation Xrotation
					End Site
					{
						OFFSET 0.000000 0.000000 0.000000
					}
				}
			}
		}
	}
	JOINT RightUpLeg
	{
		OFFSET -0.067670 -0.090522 -0.004320
		CHANNELS 3 Zrotation Yrotation Xrotation
		JOINT RightLeg
		{
			OFFSET -0.038290 -0.382569 -0.008850
			CHANNELS 3 Zrotation Yrotation Xrotation
			JOINT RightFoot
			{
				OFFSET 0.015774 -0.398415 -0.042312
				CHANNELS 3 Zrotation Yrotation Xrotation
				JOINT RightToe
				{
					OFFSET -0.025372 -0.048144 0.123348
					CHANNELS 3 Zrotation Yrotation Xrotation
					End Site
					{
						OFFSET 0.000000 0.000000 0.000000
					}
				}
			}
		}
	}
	JOINT Spine
	{
		OFFSET -0.002533 0.108963 -0.026696
		CHANNELS 3 Zrotation Yrotation Xrotation
		JOINT Spine1
		{
			OFFSET 0.005487 0.135180 0.001092
			CHANNELS 3 Zrotation Yrotation Xrotation
			JOINT Spine2
			{
				OFFSET 0.001457 0.052922 0.025425
				CHANNELS 3 Zrotation Yrotation Xrotation
				JOINT Neck
				{
					OFFSET -0.002778 0.213870 -0.042857
					CHANNELS 3 Zrotation Yrotation Xrotation
					JOINT Head
					{
						OFFSET 0.005152 0.064970 0.051349
						CHANNELS 3 Zrotation Yrotation Xrotation
						End Site
						{
							OFFSET 0.000000 0.000000 0.000000
						}
					}
				}
				JOINT LeftShoulder
				{
					OFFSET 0.078845 0.121749 -0.034090
					CHANNELS 3 Zrotation Yrotation Xrotation
					JOINT LeftArm
					{
						OFFSET 0.090977 0.030469 -0.008868
						CHANNELS 3 Zrotation Yrotation Xrotation
						JOINT LeftForeArm
						{
							OFFSET 0.259612 -0.012772 -0.027456
							CHANNELS 3 Zrotation Yrotation Xrotation
							JOINT LeftHand
							{
								OFFSET 0.249234 0.008986 -0.001171
								CHANNELS 3 Zrotation Yrotation Xrotation
								End Site
								{
									OFFSET 0.000000 0.000000 0.000000
								}
							}
						}
					}
				}
				JOINT RightShoulder
				{
					OFFSET -0.081759 0.118833 -0.038615
					CHANNELS 3 Zrotation Yrotation Xrotation
					JOINT RightArm
					{
						OFFSET -0.096012 0.032551 -0.009143
						CHANNELS 3 Zrotation Yrotation Xrotation
						JOINT RightForeArm
						{
							OFFSET -0.253742 -0.013329 -0.021401
							CHANNELS 3 Zrotation Yrotation Xrotation
							JOINT RightHand
							{
								OFFSET -0.255298 0.007772 -0.005559
								CHANNELS 3 Zrotation Yrotation Xrotation
								End Site
								{
									OFFSET 0.000000 0.000000 0.000000
								}
							}
						}
					}
				}
			}
		}
	}
}
MOTION
Frames: 6
Frame Time: 0.050000
-0.048983 0.945920 -0.030868 -1.078398 -15.445154 9.286622 3.225267 -0.410524 -6.233932 0.526159 0.276626 -7.942196 2.373910 6.439594 10.212553 0.000000 0.000000 0.000000 -3.518102 1.452703 -14.924231 2.099506 -0.157785 -0.913908 5.262861 3.165183 11.925950 0.000000 0.000000 0.000000 3.603909 -0.751744 10.560538 5.837168 -2.609305 1.584056 2.427792 -1.722199 5.857478 4.585444 -2.654987 -15.077180 0.000000 0.000000 0.000000 -24.907284 -15.609612 10.963539 -56.029104 -28.642638 6.433670 3.301364 -43.584168 1.717629 0.000000 0.000000 0.000000 18.934947 17.902158 5.073365 48.590046 19.748981 3.809897 -5.519268 35.050275 -1.273709 0.000000 0.000000 0.000000 
-0.048894 0.945946 -0.031278 -1.005751 -15.250979 9.373601 3.121648 -0.425173 -6.346087 0.465653 0.288083 -8.079163 2.181557 6.117181 10.172475 0.000000 0.000000 0.000000 -3.640156 1.437447 -14.853792 2.086140 -0.163319 -1.173970 5.048100 2.829459 11.825632 0.000000 0.000000 0.000000 3.622179 -0.750942 10.410003 5.874860 -2.648788 2.243291 2.605518 -1.242053 5.354526 4.815879 -2.750252 -14.753652 0.000000 0.000000 0.000000 -24.947485 -15.915163 10.934858 -55.873394 -28.396971 6.354893 3.236853 -43.040986 1.630667 0.000000 0.000000 0.000000 18.990781 18.092508 5.350429 48.323538 19.936573 3.872885 -6.107836 34.200654 -1.344373 0.000000 0.000000 0.000000 
-0.048880 0.945796 -0.031733 -0.891737 -14.959167 9.319273 2.990925 -0.433957 -6.336070 0.467764 0.291820 -8.151679 2.170318 6.118913 10.087628 0.000000 0.000000 0.000000 -3.720497 1.414049 -14.705420 2.136391 -0.172397 -1.411818 4.755757 2.155618 12.014541 0.000000 0.000000 0.000000 3.575433 -0.751409 10.499653 5.899112 -2.672899 2.431941 2.798544 -1.095031 5.278333 4.910372 -2.816112 -14.342531 0.000000 0.000000 0.000000 -24.583398 -15.981611 10.798843 -56.092728 -28.278778 6.391046 3.321378 -41.949010 1.499855 0.000000 0.000000 0.000000 18.813276 18.478812 5.650679 48.323275 20.505775 4.076499 -6.946263 32.908289 -1.474728 0.000000 0.000000 0.000000 
-0.048955 0.945416 -0.032384 -0.855477 -14.935540 9.370255 2.929797 -0.445298 -6.470412 0.539809 0.291197 -8.216332 2.126178 6.038426 10.050666 0.000000 0.000000 0.000000 -3.727875 1.408432 -14.653517 2.219924 -0.178780 -1.515983 4.508865 1.686215 11.983604 0.000000 0.000000 0.000000 3.480333 -0.739726 10.481126 5.865282 -2.663602 2.663643 3.171414 -0.741429 5.110006 5.090441 -2.909145 -14.156685 0.000000 0.000000 0.000000 -24.686589 -15.814748 10.593931 -55.915105 -28.008909 6.243337 2.811445 -40.982063 1.595403 0.000000 0.000000 0.000000 18.756630 18.755299 5.897537 48.219166 21.063833 4.280102 -7.706868 31.538871 -1.561840 0.000000 0.000000 0.000000 
-0.049006 0.945126 -0.033118 -0.847191 -14.949278 9.499173 2.837253 -0.450120 -6.444963 0.803505 0.284785 -8.368246 2.157847 6.087501 10.028891 0.000000 0.000000 0.000000 -3.671352 1.428076 -14.811076 2.247844 -0.179180 -1.467394 4.306063 1.288790 11.968841 0.000000 0.000000 0.000000 3.391324 -0.726284 10.396951 5.878051 -2.675872 2.938312 3.332895 -0.591565 4.812388 5.121623 -2.907386 -14.128388 0.000000 0.000000 0.000000 -24.602586 -15.724606 10.462984 -55.957688 -27.695599 6.134722 3.009992 -39.880423 1.435762 0.000000 0.000000 0.000000 18.674284 19.411676 6.289172 48.346780 21.826433 4.618764 -8.509899 30.116746 -1.657198 0.000000 0.000000 0.000000 
-0.048899 0.944795 -0.033924 -0.783296 -14.970395 9.588811 2.752167 -0.461208 -6.551144 0.867869 0.287775 -8.477184 2.145524 6.076343 10.129754 0.000000 0.000000 0.000000 -3.589283 1.458087 -15.058883 2.267008 -0.177942 -1.352462 3.982275 0.647522 11.958426 0.000000 0.000000 0.000000 3.226064 -0.705284 10.376998 5.780180 -2.632819 3.094018 3.548191 -0.626313 4.794058 5.036608 -2.875121 -13.970108 0.000000 0.000000 0.000000 -24.717191 -15.482287 10.361644 -56.181103 -27.529895 6.080715 3.376791 -39.138964 1.278020 0.000000 0.000000 0.000000 18.780346 20.064185 6.626777 48.141932 22.746701 4.975789 -8.535380 29.071654 -1.577998 0.000000 0.000000 0.000000 
